<svg width="1584" height="396" viewBox="0 0 1584 396" fill="none" xmlns="http://www.w3.org/2000/svg">
<rect width="1584" height="396" fill="#F5F5F5"/>
<g id="Awesome banner" clip-path="url(#clip0_0_1)">
<rect width="1584" height="396" fill="url(#paint0_linear_0_1)"/>
<ellipse id="Ellipse 2" cx="323" cy="64" rx="285" ry="288" fill="url(#paint1_linear_0_1)" fill-opacity="0.1"/>
<g id="copyright">
<path d="M75.95 334.52L72.30 334.52L72.30 311.16L77.20 311.16L83.70 330.04Q83.60 329.02 83.50 327.62Q83.41 326.23 83.33 324.79Q83.25 323.35 83.25 322.23L83.25 311.16L86.90 311.16L86.90 334.52L82 334.52L75.57 315.64Q75.63 316.57 75.73 317.88Q75.82 319.19 75.89 320.57Q75.95 321.94 75.95 323.10L75.95 334.52M98.80 334.84Q96.46 334.84 94.67 333.96Q92.88 333.08 91.89 331.53Q90.90 329.98 90.90 327.93Q90.90 325.78 92.13 324.18Q93.36 322.58 95.34 322.17L95.34 322.10Q93.65 321.75 92.61 320.38Q91.57 319 91.57 317.11Q91.57 315.26 92.48 313.85Q93.39 312.44 95.02 311.64Q96.66 310.84 98.80 310.84Q100.94 310.84 102.59 311.64Q104.24 312.44 105.15 313.85Q106.06 315.26 106.06 317.11Q106.06 319 105.01 320.38Q103.95 321.75 102.26 322.10L102.26 322.17Q104.24 322.58 105.47 324.18Q106.70 325.78 106.70 327.93Q106.70 329.98 105.71 331.53Q104.72 333.08 102.93 333.96Q101.14 334.84 98.80 334.84M98.80 320.73Q100.30 320.73 101.23 319.82Q102.16 318.90 102.16 317.46Q102.16 315.99 101.23 315.08Q100.30 314.17 98.80 314.17Q97.30 314.17 96.37 315.08Q95.44 315.99 95.44 317.46Q95.44 318.90 96.37 319.82Q97.30 320.73 98.80 320.73M98.80 331.45Q100.56 331.45 101.68 330.42Q102.80 329.40 102.80 327.74Q102.80 326.04 101.68 325Q100.56 323.96 98.80 323.96Q97.04 323.96 95.92 325Q94.80 326.04 94.80 327.74Q94.80 329.40 95.92 330.42Q97.04 331.45 98.80 331.45M114.35 334.52L110.70 334.52L110.70 311.16L115.60 311.16L122.10 330.04Q122 329.02 121.90 327.62Q121.81 326.23 121.73 324.79Q121.65 323.35 121.65 322.23L121.65 311.16L125.30 311.16L125.30 334.52L120.40 334.52L113.97 315.64Q114.03 316.57 114.13 317.88Q114.22 319.19 114.29 320.57Q114.35 321.94 114.35 323.10" fill="white" fill-opacity="0.9"/>
<path d="M161.48 325.24L151.24 325.24L151.24 322.68L161.48 322.68" fill="white" fill-opacity="0.9"/>
<path d="M195.02 334.84Q191.82 334.84 189.96 333.05Q188.11 331.26 188.11 328.12L188.11 317.56Q188.11 314.42 189.96 312.63Q191.82 310.84 195.02 310.84Q198.15 310.84 200.01 312.65Q201.87 314.46 201.87 317.56L198.99 317.56Q198.99 315.58 197.95 314.50Q196.91 313.43 195.02 313.43Q193.13 313.43 192.06 314.50Q190.99 315.58 190.99 317.56L190.99 328.12Q190.99 330.10 192.06 331.18Q193.13 332.25 195.02 332.25Q196.91 332.25 197.95 331.18Q198.99 330.10 198.99 328.12L201.87 328.12Q201.87 331.22 200.01 333.03Q198.15 334.84 195.02 334.84" fill="white" fill-opacity="0.9"/>
<path d="M213.96 334.84Q210.83 334.84 209 333.02Q207.18 331.19 207.18 327.80L207.18 317.88Q207.18 314.49 209 312.66Q210.83 310.84 213.96 310.84Q217.10 310.84 218.92 312.66Q220.75 314.49 220.75 317.85L220.75 327.80Q220.75 331.19 218.92 333.02Q217.10 334.84 213.96 334.84M213.96 332.25Q215.85 332.25 216.86 331.18Q217.87 330.10 217.87 328.12L217.87 317.56Q217.87 315.58 216.86 314.50Q215.85 313.43 213.96 313.43Q212.11 313.43 211.08 314.50Q210.06 315.58 210.06 317.56L210.06 328.12Q210.06 330.10 211.08 331.18Q212.11 332.25 213.96 332.25" fill="white" fill-opacity="0.9"/>
<path d="M228.65 334.52L225.87 334.52L225.87 311.16L230.12 311.16L233.10 321.27L236.20 311.16L240.46 311.16L240.46 334.52L237.67 334.52L237.67 323.48Q237.67 321.91 237.72 319.88Q237.77 317.85 237.87 315.77Q237.96 313.69 238.09 312.02L234.31 324.09L231.82 324.09L228.20 312.31Q228.46 314.68 228.55 317.50Q228.65 320.31 228.65 323.48" fill="white" fill-opacity="0.9"/>
<path d="M247.85 334.52L245.07 334.52L245.07 311.16L249.32 311.16L252.30 321.27L255.40 311.16L259.66 311.16L259.66 334.52L256.87 334.52L256.87 323.48Q256.87 321.91 256.92 319.88Q256.97 317.85 257.07 315.77Q257.16 313.69 257.29 312.02L253.51 324.09L251.02 324.09L247.40 312.31Q247.66 314.68 247.75 317.50Q247.85 320.31 247.85 323.48" fill="white" fill-opacity="0.9"/>
<path d="M271.56 334.84Q268.30 334.84 266.57 333.03Q264.84 331.22 264.84 328.12L264.84 311.16L267.72 311.16L267.72 328.12Q267.72 330.04 268.67 331.16Q269.61 332.28 271.56 332.28Q273.48 332.28 274.44 331.16Q275.40 330.04 275.40 328.12L275.40 311.16L278.28 311.16L278.28 328.12Q278.28 331.26 276.57 333.05Q274.86 334.84 271.56 334.84" fill="white" fill-opacity="0.9"/>
<path d="M286.83 334.52L284.04 334.52L284.04 311.16L287.88 311.16L295.02 331.16Q294.95 330.36 294.87 329.19Q294.79 328.02 294.75 326.73Q294.70 325.43 294.70 324.28L294.70 311.16L297.48 311.16L297.48 334.52L293.64 334.52L286.54 314.52Q286.60 315.29 286.67 316.46Q286.73 317.62 286.78 318.92Q286.83 320.22 286.83 321.40" fill="white" fill-opacity="0.9"/>
<path d="M316.20 334.52L303.72 334.52L303.72 331.90L308.49 331.90L308.49 313.78L303.72 313.78L303.72 311.16L316.20 311.16L316.20 313.78L311.43 313.78L311.43 331.90L316.20 331.90" fill="white" fill-opacity="0.9"/>
<path d="M330.60 334.52L327.72 334.52L327.72 313.78L321.32 313.78L321.32 311.16L337 311.16L337 313.78L330.60 313.78" fill="white" fill-opacity="0.9"/>
<path d="M349.80 334.52L346.92 334.52L346.92 325.78L339.88 311.16L342.95 311.16L347.50 320.76Q347.88 321.56 348.11 322.12Q348.33 322.68 348.39 322.94Q348.46 322.68 348.70 322.12Q348.94 321.56 349.32 320.76L353.87 311.16L356.84 311.16L349.80 325.78" fill="white" fill-opacity="0.9"/>
<path d="M382.83 334.52L380.04 334.52L380.04 311.16L383.88 311.16L391.02 331.16Q390.95 330.36 390.87 329.19Q390.79 328.02 390.75 326.73Q390.70 325.43 390.70 324.28L390.70 311.16L393.48 311.16L393.48 334.52L389.64 334.52L382.54 314.52Q382.60 315.29 382.67 316.46Q382.73 317.62 382.78 318.92Q382.83 320.22 382.83 321.40" fill="white" fill-opacity="0.9"/>
<path d="M405.96 334.84Q402.83 334.84 401 333.02Q399.18 331.19 399.18 327.80L399.18 317.88Q399.18 314.49 401 312.66Q402.83 310.84 405.96 310.84Q409.10 310.84 410.92 312.66Q412.75 314.49 412.75 317.85L412.75 327.80Q412.75 331.19 410.92 333.02Q409.10 334.84 405.96 334.84M405.96 332.25Q407.85 332.25 408.86 331.18Q409.87 330.10 409.87 328.12L409.87 317.56Q409.87 315.58 408.86 314.50Q407.85 313.43 405.96 313.43Q404.11 313.43 403.08 314.50Q402.06 315.58 402.06 317.56L402.06 328.12Q402.06 330.10 403.08 331.18Q404.11 332.25 405.96 332.25" fill="white" fill-opacity="0.9"/>
<path d="M424.55 334.52L418.51 334.52L418.51 311.16L424.55 311.16Q426.83 311.16 428.47 312.02Q430.12 312.89 431.03 314.46Q431.95 316.02 431.95 318.17L431.95 327.48Q431.95 329.62 431.03 331.21Q430.12 332.79 428.47 333.66Q426.83 334.52 424.55 334.52M421.39 313.72L421.39 331.96L424.55 331.96Q426.67 331.96 427.87 330.78Q429.07 329.59 429.07 327.48L429.07 318.17Q429.07 316.09 427.87 314.90Q426.67 313.72 424.55 313.72" fill="white" fill-opacity="0.9"/>
<path d="M451.40 334.52L437.96 334.52L437.96 311.16L451.40 311.16L451.40 313.78L440.81 313.78L440.81 321.02L450.28 321.02L450.28 323.58L440.81 323.58L440.81 331.90L451.40 331.90" fill="white" fill-opacity="0.9"/>
<path d="M463.69 334.84Q460.30 334.84 458.28 333.05Q456.27 331.26 456.27 328.12L459.15 328.12Q459.15 330.07 460.39 331.18Q461.64 332.28 463.69 332.28Q465.67 332.28 466.86 331.13Q468.04 329.98 468.04 328.12Q468.04 326.71 467.29 325.67Q466.54 324.63 465.13 324.25L461.58 323.26Q459.37 322.62 458.11 320.97Q456.84 319.32 456.84 317.08Q456.84 315.22 457.67 313.82Q458.51 312.41 460.01 311.62Q461.51 310.84 463.47 310.84Q465.45 310.84 466.97 311.62Q468.49 312.41 469.35 313.80Q470.22 315.19 470.22 317.02L467.34 317.02Q467.34 315.42 466.25 314.41Q465.16 313.40 463.47 313.40Q461.77 313.40 460.71 314.41Q459.66 315.42 459.66 317.02Q459.66 318.30 460.35 319.21Q461.03 320.12 462.28 320.47L465.93 321.50Q468.27 322.14 469.56 323.91Q470.86 325.69 470.86 328.12Q470.86 331.19 468.91 333.02Q466.95 334.84 463.69 334.84" fill="white" fill-opacity="0.9"/>
</g>
<path d="M82.96 197.64L72.16 197.64L72.16 195.67L76.91 195.67L76.91 181.99L72.16 185.54L72.16 183.07L76.12 180.12L79.07 180.12L79.07 195.67L82.96 195.67" fill="white" fill-opacity="0.7"/>
<path d="M97.72 197.64L86.44 197.64L86.44 195.67L91.12 195.67L91.12 186.41L86.92 186.41L86.92 184.44L93.28 184.44L93.28 195.67L97.72 195.67L97.72 197.64M91.96 182.06Q91.17 182.06 90.71 181.66Q90.26 181.25 90.26 180.55Q90.26 179.83 90.71 179.41Q91.17 178.99 91.96 178.99Q92.75 178.99 93.21 179.41Q93.66 179.83 93.66 180.55Q93.66 181.25 93.21 181.66Q92.75 182.06 91.96 182.06" fill="white" fill-opacity="0.7"/>
<path d="M103.17 197.64L101.01 197.64L101.01 184.44L103.17 184.44L103.17 186.96L103.19 186.96Q103.36 185.64 104.27 184.92Q105.18 184.20 106.70 184.20Q108.69 184.20 109.86 185.42Q111.04 186.65 111.04 188.76L111.04 197.64L108.88 197.64L108.88 189.14Q108.88 187.63 108.12 186.83Q107.37 186.02 106.07 186.02Q104.73 186.02 103.95 186.86Q103.17 187.70 103.17 189.24" fill="white" fill-opacity="0.7"/>
<path d="M120.59 197.88Q118.19 197.88 116.75 196.54Q115.31 195.19 115.31 192.84L115.31 189.24Q115.31 186.89 116.75 185.54Q118.19 184.20 120.59 184.20Q122.87 184.20 124.28 185.42Q125.68 186.65 125.75 188.76L123.59 188.76Q123.52 187.49 122.73 186.80Q121.94 186.12 120.59 186.12Q119.18 186.12 118.32 186.92Q117.47 187.73 117.47 189.22L117.47 192.84Q117.47 194.33 118.32 195.14Q119.18 195.96 120.59 195.96Q121.94 195.96 122.73 195.26Q123.52 194.57 123.59 193.32L125.75 193.32Q125.68 195.43 124.28 196.66Q122.87 197.88 120.59 197.88" fill="white" fill-opacity="0.7"/>
<path d="M131.97 197.64L129.81 197.64L129.81 180.12L131.97 180.12L131.97 186.96L131.99 186.96Q132.16 185.64 133.07 184.92Q133.98 184.20 135.50 184.20Q137.49 184.20 138.66 185.42Q139.84 186.65 139.84 188.76L139.84 197.64L137.68 197.64L137.68 189.12Q137.68 187.63 136.92 186.83Q136.17 186.02 134.87 186.02Q133.53 186.02 132.75 186.86Q131.97 187.70 131.97 189.24" fill="white" fill-opacity="0.7"/>
<path d="M163.14 197.64L158.61 197.64L158.61 180.12L163.14 180.12Q164.85 180.12 166.08 180.77Q167.32 181.42 168 182.59Q168.69 183.77 168.69 185.38L168.69 192.36Q168.69 193.97 168 195.16Q167.32 196.34 166.08 196.99Q164.85 197.64 163.14 197.64M160.77 182.04L160.77 195.72L163.14 195.72Q164.73 195.72 165.63 194.83Q166.53 193.94 166.53 192.36L166.53 185.38Q166.53 183.82 165.63 182.93Q164.73 182.04 163.14 182.04" fill="white" fill-opacity="0.7"/>
<path d="M183.28 197.64L173.20 197.64L173.20 180.12L183.28 180.12L183.28 182.09L175.34 182.09L175.34 187.51L182.44 187.51L182.44 189.43L175.34 189.43L175.34 195.67L183.28 195.67" fill="white" fill-opacity="0.7"/>
<path d="M188.56 197.64L186.16 197.64L191.20 188.76L186.42 180.12L188.92 180.12L191.63 185.30Q191.85 185.71 192.08 186.18Q192.30 186.65 192.45 186.91Q192.57 186.65 192.80 186.18Q193.02 185.71 193.24 185.30LNaN 180.12L198.38 180.12L193.60 188.62L198.64 197.64L196.17 197.64L193.17 192.07Q192.95 191.66 192.72 191.20Q192.50 190.73 192.38 190.44Q192.26 190.73 192.03 191.18Q191.80 191.64 191.58 192.05" fill="white" fill-opacity="0.7"/>
<path d="M220.05 197.88Q218.01 197.88 216.81 196.74Q215.61 195.60 215.61 193.75Q215.61 192.53 216.16 191.62Q216.71 190.70 217.70 190.19Q218.68 189.67 219.95 189.67L224.03 189.67L224.03 188.64Q224.03 186.07 221.22 186.07Q219.98 186.07 219.21 186.53Q218.44 186.98 218.39 187.80L216.23 187.80Q216.35 186.24 217.68 185.22Q219.02 184.20 221.22 184.20Q223.62 184.20 224.91 185.35Q226.19 186.50 226.19 188.57L226.19 197.64L224.06 197.64L224.06 195.24L224.01 195.24Q223.82 196.46 222.78 197.17Q221.75 197.88 220.05 197.88M220.58 196.06Q222.16 196.06 223.10 195.29Q224.03 194.52 224.03 193.20L224.03 191.35L220.19 191.35Q219.14 191.35 218.48 191.99Q217.82 192.62 217.82 193.68Q217.82 194.78 218.55 195.42Q219.28 196.06 220.58 196.06" fill="white" fill-opacity="0.7"/>
<path d="M235.96 201.96L232.26 201.96L232.26 199.99L235.98 199.99Q237.11 199.99 237.76 199.36Q238.41 198.72 238.41 197.64L238.41 196.44L238.46 194.28L238.38 194.28Q238.19 195.46 237.26 196.09Q236.32 196.73 234.90 196.73Q232.86 196.73 231.69 195.43Q230.51 194.14 230.51 191.88L230.51 189.10Q230.51 186.84 231.69 185.52Q232.86 184.20 234.90 184.20Q236.32 184.20 237.26 184.87Q238.19 185.54 238.38 186.72L238.43 186.72L238.43 184.44L240.57 184.44L240.57 197.64Q240.57 199.63 239.33 200.80Q238.10 201.96 235.96 201.96M235.55 194.93Q236.90 194.93 237.66 194.09Q238.43 193.25 238.43 191.76L238.43 189.24Q238.43 187.75 237.66 186.91Q236.90 186.07 235.55 186.07Q234.18 186.07 233.43 186.86Q232.67 187.66 232.67 189L232.67 192Q232.67 193.34 233.43 194.14Q234.18 194.93 235.55 194.93" fill="white" fill-opacity="0.7"/>
<path d="M250.36 201.96L246.66 201.96L246.66 199.99L250.38 199.99Q251.51 199.99 252.16 199.36Q252.81 198.72 252.81 197.64L252.81 196.44L252.86 194.28L252.78 194.28Q252.59 195.46 251.66 196.09Q250.72 196.73 249.30 196.73Q247.26 196.73 246.09 195.43Q244.91 194.14 244.91 191.88L244.91 189.10Q244.91 186.84 246.09 185.52Q247.26 184.20 249.30 184.20Q250.72 184.20 251.66 184.87Q252.59 185.54 252.78 186.72L252.83 186.72L252.83 184.44L254.97 184.44L254.97 197.64Q254.97 199.63 253.73 200.80Q252.50 201.96 250.36 201.96M249.95 194.93Q251.30 194.93 252.06 194.09Q252.83 193.25 252.83 191.76L252.83 189.24Q252.83 187.75 252.06 186.91Q251.30 186.07 249.95 186.07Q248.58 186.07 247.83 186.86Q247.07 187.66 247.07 189L247.07 192Q247.07 193.34 247.83 194.14Q248.58 194.93 249.95 194.93" fill="white" fill-opacity="0.7"/>
<path d="M262.05 197.64L259.89 197.64L259.89 184.44L262.05 184.44L262.05 186.96L262.10 186.96Q262.26 185.69 263.18 184.94Q264.09 184.20 265.62 184.20Q267.69 184.20 268.80 185.44Q269.92 186.67 269.92 188.95L269.92 190.08L267.76 190.08L267.76 188.95Q267.76 186.07 264.95 186.07Q263.54 186.07 262.79 186.89Q262.05 187.70 262.05 189.24" fill="white" fill-opacity="0.7"/>
<path d="M278.80 197.88Q276.47 197.88 275.04 196.48Q273.62 195.07 273.62 192.60L273.62 189.48Q273.62 187.01 275.04 185.60Q276.47 184.20 278.80 184.20Q280.36 184.20 281.52 184.82Q282.69 185.45 283.34 186.58Q283.98 187.70 283.98 189.24L283.98 191.59L275.73 191.59L275.73 192.84Q275.73 194.30 276.57 195.16Q277.41 196.01 278.80 196.01Q280 196.01 280.78 195.54Q281.56 195.07 281.73 194.28L283.89 194.28Q283.67 195.94 282.28 196.91Q280.89 197.88 278.80 197.88M275.73 189.24L275.73 189.91L281.87 189.91L281.87 189.24Q281.87 187.68 281.07 186.83Q280.26 185.98 278.80 185.98Q277.34 185.98 276.53 186.83Q275.73 187.68 275.73 189.24" fill="white" fill-opacity="0.7"/>
<path d="M293.56 201.96L289.86 201.96L289.86 199.99L293.58 199.99Q294.71 199.99 295.36 199.36Q296.01 198.72 296.01 197.64L296.01 196.44L296.06 194.28L295.98 194.28Q295.79 195.46 294.86 196.09Q293.92 196.73 292.50 196.73Q290.46 196.73 289.29 195.43Q288.11 194.14 288.11 191.88L288.11 189.10Q288.11 186.84 289.29 185.52Q290.46 184.20 292.50 184.20Q293.92 184.20 294.86 184.87Q295.79 185.54 295.98 186.72L296.03 186.72L296.03 184.44L298.17 184.44L298.17 197.64Q298.17 199.63 296.93 200.80Q295.70 201.96 293.56 201.96M293.15 194.93Q294.50 194.93 295.26 194.09Q296.03 193.25 296.03 191.76L296.03 189.24Q296.03 187.75 295.26 186.91Q294.50 186.07 293.15 186.07Q291.78 186.07 291.03 186.86Q290.27 187.66 290.27 189L290.27 192Q290.27 193.34 291.03 194.14Q291.78 194.93 293.15 194.93" fill="white" fill-opacity="0.7"/>
<path d="M306.45 197.88Q304.41 197.88 303.21 196.74Q302.01 195.60 302.01 193.75Q302.01 192.53 302.56 191.62Q303.11 190.70 304.10 190.19Q305.08 189.67 306.35 189.67L310.43 189.67L310.43 188.64Q310.43 186.07 307.62 186.07Q306.38 186.07 305.61 186.53Q304.84 186.98 304.79 187.80L302.63 187.80Q302.75 186.24 304.08 185.22Q305.42 184.20 307.62 184.20Q310.02 184.20 311.31 185.35Q312.59 186.50 312.59 188.57L312.59 197.64L310.46 197.64L310.46 195.24L310.41 195.24Q310.22 196.46 309.18 197.17Q308.15 197.88 306.45 197.88M306.98 196.06Q308.56 196.06 309.50 195.29Q310.43 194.52 310.43 193.20L310.43 191.35L306.59 191.35Q305.54 191.35 304.88 191.99Q304.22 192.62 304.22 193.68Q304.22 194.78 304.95 195.42Q305.68 196.06 306.98 196.06" fill="white" fill-opacity="0.7"/>
<path d="M327.16 197.64L323.32 197.64Q321.69 197.64 320.70 196.69Q319.72 195.74 319.72 194.16L319.72 186.41L315.93 186.41L315.93 184.44L319.72 184.44L319.72 180.72L321.88 180.72L321.88 184.44L327.28 184.44L327.28 186.41L321.88 186.41L321.88 194.16Q321.88 194.83 322.28 195.25Q322.67 195.67 323.32 195.67L327.16 195.67" fill="white" fill-opacity="0.7"/>
<path d="M336.40 197.83Q334.02 197.83 332.62 196.44Q331.22 195.05 331.22 192.55L331.22 189.53Q331.22 187.01 332.61 185.63Q334 184.25 336.40 184.25Q338.80 184.25 340.19 185.63Q341.58 187.01 341.58 189.53L341.58 192.55Q341.58 195.05 340.18 196.44Q338.78 197.83 336.40 197.83M336.40 195.91Q337.82 195.91 338.62 195.12Q339.42 194.33 339.42 192.79L339.42 189.29Q339.42 187.75 338.62 186.96Q337.82 186.17 336.40 186.17Q335.01 186.17 334.19 186.96Q333.38 187.75 333.38 189.29L333.38 192.79Q333.38 194.33 334.19 195.12Q335.01 195.91 336.40 195.91" fill="white" fill-opacity="0.7"/>
<path d="M348.45 197.64L346.29 197.64L346.29 184.44L348.45 184.44L348.45 186.96L348.50 186.96Q348.66 185.69 349.58 184.94Q350.49 184.20 352.02 184.20Q354.09 184.20 355.20 185.44Q356.32 186.67 356.32 188.95L356.32 190.08L354.16 190.08L354.16 188.95Q354.16 186.07 351.35 186.07Q349.94 186.07 349.19 186.89Q348.45 187.70 348.45 189.24" fill="white" fill-opacity="0.7"/>
<path d="M379.58 197.88Q377.30 197.88 375.93 196.52Q374.56 195.17 374.56 192.84L374.56 184.44L376.72 184.44L376.72 192.84Q376.72 194.28 377.49 195.13Q378.26 195.98 379.58 195.98Q380.92 195.98 381.70 195.13Q382.48 194.28 382.48 192.84L382.48 184.44L384.64 184.44L384.64 192.84Q384.64 195.17 383.25 196.52Q381.86 197.88 379.58 197.88" fill="white" fill-opacity="0.7"/>
<path d="M394.53 197.83L393.47 197.83Q391.26 197.83 390.05 196.84Q388.84 195.84 388.84 194.02L391 194.02Q391 194.93 391.65 195.44Q392.30 195.96 393.47 195.96L394.53 195.96Q395.73 195.96 396.39 195.43Q397.05 194.90 397.05 193.94Q397.05 192.24 395.49 192.02L391.84 191.50Q390.50 191.30 389.75 190.38Q389.01 189.46 389.01 187.94Q389.01 186.22 390.20 185.23Q391.38 184.25 393.47 184.25L394.53 184.25Q396.45 184.25 397.66 185.20Q398.87 186.14 398.97 187.68L396.78 187.68Q396.74 186.98 396.12 186.53Q395.51 186.07 394.53 186.07L393.47 186.07Q392.37 186.07 391.74 186.58Q391.12 187.08 391.12 187.94Q391.12 189.34 392.39 189.53L395.80 190.01Q399.16 190.49 399.16 193.94Q399.16 195.79 397.95 196.81Q396.74 197.83 394.53 197.83" fill="white" fill-opacity="0.7"/>
<path d="M408.40 197.88Q406.07 197.88 404.64 196.48Q403.22 195.07 403.22 192.60L403.22 189.48Q403.22 187.01 404.64 185.60Q406.07 184.20 408.40 184.20Q409.96 184.20 411.12 184.82Q412.29 185.45 412.94 186.58Q413.58 187.70 413.58 189.24L413.58 191.59L405.33 191.59L405.33 192.84Q405.33 194.30 406.17 195.16Q407.01 196.01 408.40 196.01Q409.60 196.01 410.38 195.54Q411.16 195.07 411.33 194.28L413.49 194.28Q413.27 195.94 411.88 196.91Q410.49 197.88 408.40 197.88M405.33 189.24L405.33 189.91L411.47 189.91L411.47 189.24Q411.47 187.68 410.67 186.83Q409.86 185.98 408.40 185.98Q406.94 185.98 406.13 186.83Q405.33 187.68 405.33 189.24" fill="white" fill-opacity="0.7"/>
<path d="M423.33 197.83L422.27 197.83Q420.06 197.83 418.85 196.84Q417.64 195.84 417.64 194.02L419.80 194.02Q419.80 194.93 420.45 195.44Q421.10 195.96 422.27 195.96L423.33 195.96Q424.53 195.96 425.19 195.43Q425.85 194.90 425.85 193.94Q425.85 192.24 424.29 192.02L420.64 191.50Q419.30 191.30 418.55 190.38Q417.81 189.46 417.81 187.94Q417.81 186.22 419 185.23Q420.18 184.25 422.27 184.25L423.33 184.25Q425.25 184.25 426.46 185.20Q427.67 186.14 427.77 187.68L425.58 187.68Q425.54 186.98 424.92 186.53Q424.31 186.07 423.33 186.07L422.27 186.07Q421.17 186.07 420.54 186.58Q419.92 187.08 419.92 187.94Q419.92 189.34 421.19 189.53L424.60 190.01Q427.96 190.49 427.96 193.94Q427.96 195.79 426.75 196.81Q425.54 197.83 423.33 197.83" fill="white" fill-opacity="0.7"/>
<path d="M448.77 197.64L446.61 197.64L446.61 180.12L452.25 180.12Q454.70 180.12 456.15 181.52Q457.60 182.93 457.60 185.28Q457.60 187.63 456.15 189.04Q454.70 190.44 452.25 190.44L448.77 190.44L448.77 197.64M448.77 182.06L448.77 188.50L452.25 188.50Q453.66 188.50 454.52 187.62Q455.37 186.74 455.37 185.28Q455.37 183.79 454.52 182.93Q453.66 182.06 452.25 182.06" fill="white" fill-opacity="0.7"/>
<path d="M464.85 197.88Q462.81 197.88 461.61 196.74Q460.41 195.60 460.41 193.75Q460.41 192.53 460.96 191.62Q461.51 190.70 462.50 190.19Q463.48 189.67 464.75 189.67L468.83 189.67L468.83 188.64Q468.83 186.07 466.02 186.07Q464.78 186.07 464.01 186.53Q463.24 186.98 463.19 187.80L461.03 187.80Q461.15 186.24 462.48 185.22Q463.82 184.20 466.02 184.20Q468.42 184.20 469.71 185.35Q470.99 186.50 470.99 188.57L470.99 197.64L468.86 197.64L468.86 195.24L468.81 195.24Q468.62 196.46 467.58 197.17Q466.55 197.88 464.85 197.88M465.38 196.06Q466.96 196.06 467.90 195.29Q468.83 194.52 468.83 193.20L468.83 191.35L464.99 191.35Q463.94 191.35 463.28 191.99Q462.62 192.62 462.62 193.68Q462.62 194.78 463.35 195.42Q464.08 196.06 465.38 196.06" fill="white" fill-opacity="0.7"/>
<path d="M485.56 197.64L481.72 197.64Q480.09 197.64 479.10 196.69Q478.12 195.74 478.12 194.16L478.12 186.41L474.33 186.41L474.33 184.44L478.12 184.44L478.12 180.72L480.28 180.72L480.28 184.44L485.68 184.44L485.68 186.41L480.28 186.41L480.28 194.16Q480.28 194.83 480.68 195.25Q481.07 195.67 481.72 195.67L485.56 195.67" fill="white" fill-opacity="0.7"/>
<path d="M491.97 197.64L489.81 197.64L489.81 180.12L491.97 180.12L491.97 186.96L491.99 186.96Q492.16 185.64 493.07 184.92Q493.98 184.20 495.50 184.20Q497.49 184.20 498.66 185.42Q499.84 186.65 499.84 188.76L499.84 197.64L497.68 197.64L497.68 189.12Q497.68 187.63 496.92 186.83Q496.17 186.02 494.87 186.02Q493.53 186.02 492.75 186.86Q491.97 187.70 491.97 189.24" fill="white" fill-opacity="0.7"/>
<path d="M509.32 197.64L507.16 197.64L507.16 188.21L503.32 188.21L503.32 186.24L507.16 186.24L507.16 183.48Q507.16 181.92 508.14 181.02Q509.13 180.12 510.86 180.12L514.72 180.12L514.72 182.09L510.86 182.09Q509.32 182.09 509.32 183.48L509.32 186.24L514.72 186.24L514.72 188.21L509.32 188.21" fill="white" fill-opacity="0.7"/>
<path d="M529.72 197.64L518.44 197.64L518.44 195.67L523.12 195.67L523.12 186.41L518.92 186.41L518.92 184.44L525.28 184.44L525.28 195.67L529.72 195.67L529.72 197.64M523.96 182.06Q523.17 182.06 522.71 181.66Q522.26 181.25 522.26 180.55Q522.26 179.83 522.71 179.41Q523.17 178.99 523.96 178.99Q524.75 178.99 525.21 179.41Q525.66 179.83 525.66 180.55Q525.66 181.25 525.21 181.66Q524.75 182.06 523.96 182.06" fill="white" fill-opacity="0.7"/>
<path d="M535.17 197.64L533.01 197.64L533.01 184.44L535.17 184.44L535.17 186.96L535.19 186.96Q535.36 185.64 536.27 184.92Q537.18 184.20 538.70 184.20Q540.69 184.20 541.86 185.42Q543.04 186.65 543.04 188.76L543.04 197.64L540.88 197.64L540.88 189.14Q540.88 187.63 540.12 186.83Q539.37 186.02 538.07 186.02Q536.73 186.02 535.95 186.86Q535.17 187.70 535.17 189.24" fill="white" fill-opacity="0.7"/>
<path d="M551.63 197.88Q549.66 197.88 548.48 196.56Q547.29 195.24 547.29 192.98L547.29 189.12Q547.29 186.84 548.46 185.52Q549.64 184.20 551.63 184.20Q553.12 184.20 554.09 184.94Q555.06 185.69 555.26 186.96L555.28 186.96L555.23 183.96L555.23 180.12L557.39 180.12L557.39 197.64L555.23 197.64L555.23 195.12L555.21 195.12Q555.04 196.42 554.08 197.15Q553.12 197.88 551.63 197.88M552.35 196.01Q553.70 196.01 554.46 195.17Q555.23 194.33 555.23 192.84L555.23 189.24Q555.23 187.75 554.46 186.91Q553.70 186.07 552.35 186.07Q550.98 186.07 550.22 186.78Q549.45 187.49 549.45 189.12L549.45 192.96Q549.45 194.57 550.22 195.29Q550.98 196.01 552.35 196.01" fill="white" fill-opacity="0.7"/>
<path d="M566.80 197.88Q564.47 197.88 563.04 196.48Q561.62 195.07 561.62 192.60L561.62 189.48Q561.62 187.01 563.04 185.60Q564.47 184.20 566.80 184.20Q568.36 184.20 569.52 184.82Q570.69 185.45 571.34 186.58Q571.98 187.70 571.98 189.24L571.98 191.59L563.73 191.59L563.73 192.84Q563.73 194.30 564.57 195.16Q565.41 196.01 566.80 196.01Q568 196.01 568.78 195.54Q569.56 195.07 569.73 194.28L571.89 194.28Q571.67 195.94 570.28 196.91Q568.89 197.88 566.80 197.88M563.73 189.24L563.73 189.91L569.87 189.91L569.87 189.24Q569.87 187.68 569.07 186.83Q568.26 185.98 566.80 185.98Q565.34 185.98 564.53 186.83Q563.73 187.68 563.73 189.24" fill="white" fill-opacity="0.7"/>
<path d="M578.85 197.64L576.69 197.64L576.69 184.44L578.85 184.44L578.85 186.96L578.90 186.96Q579.06 185.69 579.98 184.94Q580.89 184.20 582.42 184.20Q584.49 184.20 585.60 185.44Q586.72 186.67 586.72 188.95L586.72 190.08L584.56 190.08L584.56 188.95Q584.56 186.07 581.75 186.07Q580.34 186.07 579.59 186.89Q578.85 187.70 578.85 189.24" fill="white" fill-opacity="0.7"/>
<path d="M608.85 197.88Q606.81 197.88 605.61 196.74Q604.41 195.60 604.41 193.75Q604.41 192.53 604.96 191.62Q605.51 190.70 606.50 190.19Q607.48 189.67 608.75 189.67L612.83 189.67L612.83 188.64Q612.83 186.07 610.02 186.07Q608.78 186.07 608.01 186.53Q607.24 186.98 607.19 187.80L605.03 187.80Q605.15 186.24 606.48 185.22Q607.82 184.20 610.02 184.20Q612.42 184.20 613.71 185.35Q614.99 186.50 614.99 188.57L614.99 197.64L612.86 197.64L612.86 195.24L612.81 195.24Q612.62 196.46 611.58 197.17Q610.55 197.88 608.85 197.88M609.38 196.06Q610.96 196.06 611.90 195.29Q612.83 194.52 612.83 193.20L612.83 191.35L608.99 191.35Q607.94 191.35 607.28 191.99Q606.62 192.62 606.62 193.68Q606.62 194.78 607.35 195.42Q608.08 196.06 609.38 196.06" fill="white" fill-opacity="0.7"/>
<path d="M630.40 197.64L626.32 197.64Q624.57 197.64 623.52 196.62Q622.48 195.60 622.48 193.92L622.48 182.09L617.92 182.09L617.92 180.12L624.64 180.12L624.64 193.92Q624.64 194.74 625.10 195.20Q625.55 195.67 626.32 195.67L630.40 195.67" fill="white" fill-opacity="0.7"/>
<path d="M639.16 201.96L635.46 201.96L635.46 199.99L639.18 199.99Q640.31 199.99 640.96 199.36Q641.61 198.72 641.61 197.64L641.61 196.44L641.66 194.28L641.58 194.28Q641.39 195.46 640.46 196.09Q639.52 196.73 638.10 196.73Q636.06 196.73 634.89 195.43Q633.71 194.14 633.71 191.88L633.71 189.10Q633.71 186.84 634.89 185.52Q636.06 184.20 638.10 184.20Q639.52 184.20 640.46 184.87Q641.39 185.54 641.58 186.72L641.63 186.72L641.63 184.44L643.77 184.44L643.77 197.64Q643.77 199.63 642.53 200.80Q641.30 201.96 639.16 201.96M638.75 194.93Q640.10 194.93 640.86 194.09Q641.63 193.25 641.63 191.76L641.63 189.24Q641.63 187.75 640.86 186.91Q640.10 186.07 638.75 186.07Q637.38 186.07 636.63 186.86Q635.87 187.66 635.87 189L635.87 192Q635.87 193.34 636.63 194.14Q637.38 194.93 638.75 194.93" fill="white" fill-opacity="0.7"/>
<path d="M653.20 197.83Q650.82 197.83 649.42 196.44Q648.02 195.05 648.02 192.55L648.02 189.53Q648.02 187.01 649.41 185.63Q650.80 184.25 653.20 184.25Q655.60 184.25 656.99 185.63Q658.38 187.01 658.38 189.53L658.38 192.55Q658.38 195.05 656.98 196.44Q655.58 197.83 653.20 197.83M653.20 195.91Q654.62 195.91 655.42 195.12Q656.22 194.33 656.22 192.79L656.22 189.29Q656.22 187.75 655.42 186.96Q654.62 186.17 653.20 186.17Q651.81 186.17 650.99 186.96Q650.18 187.75 650.18 189.29L650.18 192.79Q650.18 194.33 650.99 195.12Q651.81 195.91 653.20 195.91" fill="white" fill-opacity="0.7"/>
<path d="M665.25 197.64L663.09 197.64L663.09 184.44L665.25 184.44L665.25 186.96L665.30 186.96Q665.46 185.69 666.38 184.94Q667.29 184.20 668.82 184.20Q670.89 184.20 672 185.44Q673.12 186.67 673.12 188.95L673.12 190.08L670.96 190.08L670.96 188.95Q670.96 186.07 668.15 186.07Q666.74 186.07 665.99 186.89Q665.25 187.70 665.25 189.24" fill="white" fill-opacity="0.7"/>
<path d="M688.12 197.64L676.84 197.64L676.84 195.67L681.52 195.67L681.52 186.41L677.32 186.41L677.32 184.44L683.68 184.44L683.68 195.67L688.12 195.67L688.12 197.64M682.36 182.06Q681.57 182.06 681.11 181.66Q680.66 181.25 680.66 180.55Q680.66 179.83 681.11 179.41Q681.57 178.99 682.36 178.99Q683.15 178.99 683.61 179.41Q684.06 179.83 684.06 180.55Q684.06 181.25 683.61 181.66Q683.15 182.06 682.36 182.06" fill="white" fill-opacity="0.7"/>
<path d="M701.56 197.64L697.72 197.64Q696.09 197.64 695.10 196.69Q694.12 195.74 694.12 194.16L694.12 186.41L690.33 186.41L690.33 184.44L694.12 184.44L694.12 180.72L696.28 180.72L696.28 184.44L701.68 184.44L701.68 186.41L696.28 186.41L696.28 194.16Q696.28 194.83 696.68 195.25Q697.07 195.67 697.72 195.67L701.56 195.67" fill="white" fill-opacity="0.7"/>
<path d="M707.97 197.64L705.81 197.64L705.81 180.12L707.97 180.12L707.97 186.96L707.99 186.96Q708.16 185.64 709.07 184.92Q709.98 184.20 711.50 184.20Q713.49 184.20 714.66 185.42Q715.84 186.65 715.84 188.76L715.84 197.64L713.68 197.64L713.68 189.12Q713.68 187.63 712.92 186.83Q712.17 186.02 710.87 186.02Q709.53 186.02 708.75 186.86Q707.97 187.70 707.97 189.24" fill="white" fill-opacity="0.7"/>
<path d="M721.46 197.64L719.44 197.64L719.44 184.44L721.31 184.44L721.31 186.19L721.36 186.19Q721.48 185.30 722.07 184.75Q722.66 184.20 723.57 184.20Q724.43 184.20 725.03 184.70Q725.63 185.21 725.90 186.07L725.92 186.07Q726.09 185.21 726.68 184.70Q727.26 184.20 728.18 184.20Q729.45 184.20 730.20 185.15Q730.96 186.10 730.96 187.61L730.96 197.64L728.94 197.64L728.94 187.58Q728.94 186.79 728.56 186.32Q728.18 185.86 727.50 185.86Q726.86 185.86 726.47 186.31Q726.09 186.77 726.09 187.56L726.09 197.64L724.31 197.64L724.31 187.58Q724.31 186.79 723.93 186.32Q723.54 185.86 722.90 185.86Q722.22 185.86 721.84 186.31Q721.46 186.77 721.46 187.56" fill="white" fill-opacity="0.7"/>
<path d="M752.85 197.88Q750.81 197.88 749.61 196.74Q748.41 195.60 748.41 193.75Q748.41 192.53 748.96 191.62Q749.51 190.70 750.50 190.19Q751.48 189.67 752.75 189.67L756.83 189.67L756.83 188.64Q756.83 186.07 754.02 186.07Q752.78 186.07 752.01 186.53Q751.24 186.98 751.19 187.80L749.03 187.80Q749.15 186.24 750.48 185.22Q751.82 184.20 754.02 184.20Q756.42 184.20 757.71 185.35Q758.99 186.50 758.99 188.57L758.99 197.64L756.86 197.64L756.86 195.24L756.81 195.24Q756.62 196.46 755.58 197.17Q754.55 197.88 752.85 197.88M753.38 196.06Q754.96 196.06 755.90 195.29Q756.83 194.52 756.83 193.20L756.83 191.35L752.99 191.35Q751.94 191.35 751.28 191.99Q750.62 192.62 750.62 193.68Q750.62 194.78 751.35 195.42Q752.08 196.06 753.38 196.06" fill="white" fill-opacity="0.7"/>
<path d="M768.59 197.88Q766.19 197.88 764.75 196.54Q763.31 195.19 763.31 192.84L763.31 189.24Q763.31 186.89 764.75 185.54Q766.19 184.20 768.59 184.20Q770.87 184.20 772.28 185.42Q773.68 186.65 773.75 188.76L771.59 188.76Q771.52 187.49 770.73 186.80Q769.94 186.12 768.59 186.12Q767.18 186.12 766.32 186.92Q765.47 187.73 765.47 189.22L765.47 192.84Q765.47 194.33 766.32 195.14Q767.18 195.96 768.59 195.96Q769.94 195.96 770.73 195.26Q771.52 194.57 771.59 193.32L773.75 193.32Q773.68 195.43 772.28 196.66Q770.87 197.88 768.59 197.88" fill="white" fill-opacity="0.7"/>
<path d="M780.45 197.64L778.29 197.64L778.29 184.44L780.45 184.44L780.45 186.96L780.50 186.96Q780.66 185.69 781.58 184.94Q782.49 184.20 784.02 184.20Q786.09 184.20 787.20 185.44Q788.32 186.67 788.32 188.95L788.32 190.08L786.16 190.08L786.16 188.95Q786.16 186.07 783.35 186.07Q781.94 186.07 781.19 186.89Q780.45 187.70 780.45 189.24" fill="white" fill-opacity="0.7"/>
<path d="M797.20 197.83Q794.82 197.83 793.42 196.44Q792.02 195.05 792.02 192.55L792.02 189.53Q792.02 187.01 793.41 185.63Q794.80 184.25 797.20 184.25Q799.60 184.25 800.99 185.63Q802.38 187.01 802.38 189.53L802.38 192.55Q802.38 195.05 800.98 196.44Q799.58 197.83 797.20 197.83M797.20 195.91Q798.62 195.91 799.42 195.12Q800.22 194.33 800.22 192.79L800.22 189.29Q800.22 187.75 799.42 186.96Q798.62 186.17 797.20 186.17Q795.81 186.17 794.99 186.96Q794.18 187.75 794.18 189.29L794.18 192.79Q794.18 194.33 794.99 195.12Q795.81 195.91 797.20 195.91" fill="white" fill-opacity="0.7"/>
<path d="M812.13 197.83L811.07 197.83Q808.86 197.83 807.65 196.84Q806.44 195.84 806.44 194.02L808.60 194.02Q808.60 194.93 809.25 195.44Q809.90 195.96 811.07 195.96L812.13 195.96Q813.33 195.96 813.99 195.43Q814.65 194.90 814.65 193.94Q814.65 192.24 813.09 192.02L809.44 191.50Q808.10 191.30 807.35 190.38Q806.61 189.46 806.61 187.94Q806.61 186.22 807.80 185.23Q808.98 184.25 811.07 184.25L812.13 184.25Q814.05 184.25 815.26 185.20Q816.47 186.14 816.57 187.68L814.38 187.68Q814.34 186.98 813.72 186.53Q813.11 186.07 812.13 186.07L811.07 186.07Q809.97 186.07 809.34 186.58Q808.72 187.08 808.72 187.94Q808.72 189.34 809.99 189.53L813.40 190.01Q816.76 190.49 816.76 193.94Q816.76 195.79 815.55 196.81Q814.34 197.83 812.13 197.83" fill="white" fill-opacity="0.7"/>
<path d="M826.53 197.83L825.47 197.83Q823.26 197.83 822.05 196.84Q820.84 195.84 820.84 194.02L823 194.02Q823 194.93 823.65 195.44Q824.30 195.96 825.47 195.96L826.53 195.96Q827.73 195.96 828.39 195.43Q829.05 194.90 829.05 193.94Q829.05 192.24 827.49 192.02L823.84 191.50Q822.50 191.30 821.75 190.38Q821.01 189.46 821.01 187.94Q821.01 186.22 822.20 185.23Q823.38 184.25 825.47 184.25L826.53 184.25Q828.45 184.25 829.66 185.20Q830.87 186.14 830.97 187.68L828.78 187.68Q828.74 186.98 828.12 186.53Q827.51 186.07 826.53 186.07L825.47 186.07Q824.37 186.07 823.74 186.58Q823.12 187.08 823.12 187.94Q823.12 189.34 824.39 189.53L827.80 190.01Q831.16 190.49 831.16 193.94Q831.16 195.79 829.95 196.81Q828.74 197.83 826.53 197.83" fill="white" fill-opacity="0.7"/>
<path d="M854.66 197.88Q852.23 197.88 850.82 196.52Q849.40 195.17 849.40 192.84L851.56 192.84Q851.56 194.28 852.40 195.12Q853.24 195.96 854.68 195.96Q856.12 195.96 856.96 195.12Q857.80 194.28 857.80 192.84L857.80 191.76Q857.80 190.32 856.98 189.48Q856.17 188.64 854.78 188.64L850 188.64L850 180.12L859.34 180.12L859.34 182.09L852.02 182.09L852.06 186.67L854.90 186.67Q857.32 186.67 858.64 188Q859.96 189.34 859.96 191.76L859.96 192.84Q859.96 195.17 858.53 196.52Q857.10 197.88 854.66 197.88" fill="white" fill-opacity="0.7"/>
<path d="M869.20 197.88Q866.78 197.88 865.35 196.48Q863.92 195.07 863.92 192.72L863.92 185.04Q863.92 182.69 865.35 181.28Q866.78 179.88 869.20 179.88Q871.62 179.88 873.05 181.28Q874.48 182.69 874.48 185.04L874.48 192.72Q874.48 194.28 873.83 195.44Q873.18 196.61 872 197.24Q870.81 197.88 869.20 197.88M869.20 196.03Q870.64 196.03 871.52 195.11Q872.39 194.18 872.39 192.72L872.39 185.04Q872.39 183.58 871.52 182.65Q870.64 181.73 869.20 181.73Q867.76 181.73 866.88 182.65Q866.01 183.58 866.01 185.04L866.01 192.72Q866.01 194.18 866.88 195.11Q867.76 196.03 869.20 196.03M869.20 190.20Q868.55 190.20 868.16 189.84Q867.76 189.48 867.76 188.81Q867.76 188.16 868.16 187.81Q868.55 187.46 869.20 187.46Q869.85 187.46 870.24 187.81Q870.64 188.16 870.64 188.81Q870.64 189.48 870.24 189.84Q869.85 190.20 869.20 190.20" fill="white" fill-opacity="0.7"/>
<path d="M884.66 195.36L882.54 195.36L882.54 190.68L877.96 190.68L877.96 188.76L882.54 188.76L882.54 184.08L884.66 184.08L884.66 188.76L889.24 188.76L889.24 190.68L884.66 190.68" fill="white" fill-opacity="0.7"/>
<path d="M912.93 197.83L911.87 197.83Q909.66 197.83 908.45 196.84Q907.24 195.84 907.24 194.02L909.40 194.02Q909.40 194.93 910.05 195.44Q910.70 195.96 911.87 195.96L912.93 195.96Q914.13 195.96 914.79 195.43Q915.45 194.90 915.45 193.94Q915.45 192.24 913.89 192.02L910.24 191.50Q908.90 191.30 908.15 190.38Q907.41 189.46 907.41 187.94Q907.41 186.22 908.60 185.23Q909.78 184.25 911.87 184.25L912.93 184.25Q914.85 184.25 916.06 185.20Q917.27 186.14 917.37 187.68L915.18 187.68Q915.14 186.98 914.52 186.53Q913.91 186.07 912.93 186.07L911.87 186.07Q910.77 186.07 910.14 186.58Q909.52 187.08 909.52 187.94Q909.52 189.34 910.79 189.53L914.20 190.01Q917.56 190.49 917.56 193.94Q917.56 195.79 916.35 196.81Q915.14 197.83 912.93 197.83" fill="white" fill-opacity="0.7"/>
<path d="M926.80 197.83Q924.42 197.83 923.02 196.44Q921.62 195.05 921.62 192.55L921.62 189.53Q921.62 187.01 923.01 185.63Q924.40 184.25 926.80 184.25Q929.20 184.25 930.59 185.63Q931.98 187.01 931.98 189.53L931.98 192.55Q931.98 195.05 930.58 196.44Q929.18 197.83 926.80 197.83M926.80 195.91Q928.22 195.91 929.02 195.12Q929.82 194.33 929.82 192.79L929.82 189.29Q929.82 187.75 929.02 186.96Q928.22 186.17 926.80 186.17Q925.41 186.17 924.59 186.96Q923.78 187.75 923.78 189.29L923.78 192.79Q923.78 194.33 924.59 195.12Q925.41 195.91 926.80 195.91" fill="white" fill-opacity="0.7"/>
<path d="M941.18 197.88Q938.90 197.88 937.53 196.52Q936.16 195.17 936.16 192.84L936.16 184.44L938.32 184.44L938.32 192.84Q938.32 194.28 939.09 195.13Q939.86 195.98 941.18 195.98Q942.52 195.98 943.30 195.13Q944.08 194.28 944.08 192.84L944.08 184.44L946.24 184.44L946.24 192.84Q946.24 195.17 944.85 196.52Q943.46 197.88 941.18 197.88" fill="white" fill-opacity="0.7"/>
<path d="M953.25 197.64L951.09 197.64L951.09 184.44L953.25 184.44L953.25 186.96L953.30 186.96Q953.46 185.69 954.38 184.94Q955.29 184.20 956.82 184.20Q958.89 184.20 960 185.44Q961.12 186.67 961.12 188.95L961.12 190.08L958.96 190.08L958.96 188.95Q958.96 186.07 956.15 186.07Q954.74 186.07 953.99 186.89Q953.25 187.70 953.25 189.24" fill="white" fill-opacity="0.7"/>
<path d="M970.19 197.88Q967.79 197.88 966.35 196.54Q964.91 195.19 964.91 192.84L964.91 189.24Q964.91 186.89 966.35 185.54Q967.79 184.20 970.19 184.20Q972.47 184.20 973.88 185.42Q975.28 186.65 975.35 188.76L973.19 188.76Q973.12 187.49 972.33 186.80Q971.54 186.12 970.19 186.12Q968.78 186.12 967.92 186.92Q967.07 187.73 967.07 189.22L967.07 192.84Q967.07 194.33 967.92 195.14Q968.78 195.96 970.19 195.96Q971.54 195.96 972.33 195.26Q973.12 194.57 973.19 193.32L975.35 193.32Q975.28 195.43 973.88 196.66Q972.47 197.88 970.19 197.88" fill="white" fill-opacity="0.7"/>
<path d="M984.40 197.88Q982.07 197.88 980.64 196.48Q979.22 195.07 979.22 192.60L979.22 189.48Q979.22 187.01 980.64 185.60Q982.07 184.20 984.40 184.20Q985.96 184.20 987.12 184.82Q988.29 185.45 988.94 186.58Q989.58 187.70 989.58 189.24L989.58 191.59L981.33 191.59L981.33 192.84Q981.33 194.30 982.17 195.16Q983.01 196.01 984.40 196.01Q985.60 196.01 986.38 195.54Q987.16 195.07 987.33 194.28L989.49 194.28Q989.27 195.94 987.88 196.91Q986.49 197.88 984.40 197.88M981.33 189.24L981.33 189.91L987.47 189.91L987.47 189.24Q987.47 187.68 986.67 186.83Q985.86 185.98 984.40 185.98Q982.94 185.98 982.13 186.83Q981.33 187.68 981.33 189.24" fill="white" fill-opacity="0.7"/>
<path d="M999.33 197.83L998.27 197.83Q996.06 197.83 994.85 196.84Q993.64 195.84 993.64 194.02L995.80 194.02Q995.80 194.93 996.45 195.44Q997.10 195.96 998.27 195.96L999.33 195.96Q1000.53 195.96 1001.19 195.43Q1001.85 194.90 1001.85 193.94Q1001.85 192.24 1000.29 192.02L996.64 191.50Q995.30 191.30 994.55 190.38Q993.81 189.46 993.81 187.94Q993.81 186.22 995 185.23Q996.18 184.25 998.27 184.25L999.33 184.25Q1001.25 184.25 1002.46 185.20Q1003.67 186.14 1003.77 187.68L1001.58 187.68Q1001.54 186.98 1000.92 186.53Q1000.31 186.07 999.33 186.07L998.27 186.07Q997.17 186.07 996.54 186.58Q995.92 187.08 995.92 187.94Q995.92 189.34 997.19 189.53L1000.60 190.01Q1003.96 190.49 1003.96 193.94Q1003.96 195.79 1002.75 196.81Q1001.54 197.83 999.33 197.83" fill="white" fill-opacity="0.7"/>
<path d="M1027.60 197.83Q1025.22 197.83 1023.82 196.44Q1022.42 195.05 1022.42 192.55L1022.42 189.53Q1022.42 187.01 1023.81 185.63Q1025.20 184.25 1027.60 184.25Q1030 184.25 1031.39 185.63Q1032.78 187.01 1032.78 189.53L1032.78 192.55Q1032.78 195.05 1031.38 196.44Q1029.98 197.83 1027.60 197.83M1027.60 195.91Q1029.02 195.91 1029.82 195.12Q1030.62 194.33 1030.62 192.79L1030.62 189.29Q1030.62 187.75 1029.82 186.96Q1029.02 186.17 1027.60 186.17Q1026.21 186.17 1025.39 186.96Q1024.58 187.75 1024.58 189.29L1024.58 192.79Q1024.58 194.33 1025.39 195.12Q1026.21 195.91 1027.60 195.91" fill="white" fill-opacity="0.7"/>
<path d="M1039.17 197.64L1037.01 197.64L1037.01 184.44L1039.17 184.44L1039.17 186.96L1039.19 186.96Q1039.36 185.64 1040.27 184.92Q1041.18 184.20 1042.70 184.20Q1044.69 184.20 1045.86 185.42Q1047.04 186.65 1047.04 188.76L1047.04 197.64L1044.88 197.64L1044.88 189.14Q1044.88 187.63 1044.12 186.83Q1043.37 186.02 1042.07 186.02Q1040.73 186.02 1039.95 186.86Q1039.17 187.70 1039.17 189.24" fill="white" fill-opacity="0.7"/>
<path d="M1076.56 197.64L1065.76 197.64L1065.76 195.67L1070.51 195.67L1070.51 181.99L1065.76 185.54L1065.76 183.07L1069.72 180.12L1072.67 180.12L1072.67 195.67L1076.56 195.67" fill="white" fill-opacity="0.7"/>
<path d="M1090.65 197.64L1080.06 197.64L1080.06 195.65L1085.90 189.41Q1087.17 188.06 1087.70 187.01Q1088.22 185.95 1088.22 184.94Q1088.22 183.50 1087.40 182.65Q1086.57 181.80 1085.15 181.80Q1083.69 181.80 1082.84 182.68Q1081.98 183.55 1081.98 185.04L1079.82 185.04Q1079.90 182.66 1081.34 181.27Q1082.78 179.88 1085.15 179.88Q1087.58 179.88 1089 181.25Q1090.43 182.62 1090.43 184.97Q1090.43 186.22 1089.75 187.61Q1089.06 189 1087.41 190.73L1082.68 195.67L1090.65 195.67" fill="white" fill-opacity="0.7"/>
<path d="M1100.66 195.36L1098.54 195.36L1098.54 190.68L1093.96 190.68L1093.96 188.76L1098.54 188.76L1098.54 184.08L1100.66 184.08L1100.66 188.76L1105.24 188.76L1105.24 190.68L1100.66 190.68" fill="white" fill-opacity="0.7"/>
<path d="M77.39 229.88Q74.99 229.88 73.55 228.54Q72.11 227.19 72.11 224.84L72.11 221.24Q72.11 218.89 73.55 217.54Q74.99 216.20 77.39 216.20Q79.67 216.20 81.08 217.42Q82.48 218.65 82.55 220.76L80.39 220.76Q80.32 219.49 79.53 218.80Q78.74 218.12 77.39 218.12Q75.98 218.12 75.12 218.92Q74.27 219.73 74.27 221.22L74.27 224.84Q74.27 226.33 75.12 227.14Q75.98 227.96 77.39 227.96Q78.74 227.96 79.53 227.26Q80.32 226.57 80.39 225.32L82.55 225.32Q82.48 227.43 81.08 228.66Q79.67 229.88 77.39 229.88" fill="white" fill-opacity="0.7"/>
<path d="M88.77 229.64L86.61 229.64L86.61 212.12L88.77 212.12L88.77 218.96L88.79 218.96Q88.96 217.64 89.87 216.92Q90.78 216.20 92.30 216.20Q94.29 216.20 95.46 217.42Q96.64 218.65 96.64 220.76L96.64 229.64L94.48 229.64L94.48 221.12Q94.48 219.63 93.72 218.83Q92.97 218.02 91.67 218.02Q90.33 218.02 89.55 218.86Q88.77 219.70 88.77 221.24" fill="white" fill-opacity="0.7"/>
<path d="M104.85 229.88Q102.81 229.88 101.61 228.74Q100.41 227.60 100.41 225.75Q100.41 224.53 100.96 223.62Q101.51 222.70 102.50 222.19Q103.48 221.67 104.75 221.67L108.83 221.67L108.83 220.64Q108.83 218.07 106.02 218.07Q104.78 218.07 104.01 218.53Q103.24 218.98 103.19 219.80L101.03 219.80Q101.15 218.24 102.48 217.22Q103.82 216.20 106.02 216.20Q108.42 216.20 109.71 217.35Q110.99 218.50 110.99 220.57L110.99 229.64L108.86 229.64L108.86 227.24L108.81 227.24Q108.62 228.46 107.58 229.17Q106.55 229.88 104.85 229.88M105.38 228.06Q106.96 228.06 107.90 227.29Q108.83 226.52 108.83 225.20L108.83 223.35L104.99 223.35Q103.94 223.35 103.28 223.99Q102.62 224.62 102.62 225.68Q102.62 226.78 103.35 227.42Q104.08 228.06 105.38 228.06" fill="white" fill-opacity="0.7"/>
<path d="M126.52 229.64L115.24 229.64L115.24 227.67L119.92 227.67L119.92 218.41L115.72 218.41L115.72 216.44L122.08 216.44L122.08 227.67L126.52 227.67L126.52 229.64M120.76 214.06Q119.97 214.06 119.51 213.66Q119.06 213.25 119.06 212.55Q119.06 211.83 119.51 211.41Q119.97 210.99 120.76 210.99Q121.55 210.99 122.01 211.41Q122.46 211.83 122.46 212.55Q122.46 213.25 122.01 213.66Q121.55 214.06 120.76 214.06" fill="white" fill-opacity="0.7"/>
<path d="M131.97 229.64L129.81 229.64L129.81 216.44L131.97 216.44L131.97 218.96L131.99 218.96Q132.16 217.64 133.07 216.92Q133.98 216.20 135.50 216.20Q137.49 216.20 138.66 217.42Q139.84 218.65 139.84 220.76L139.84 229.64L137.68 229.64L137.68 221.14Q137.68 219.63 136.92 218.83Q136.17 218.02 134.87 218.02Q133.53 218.02 132.75 218.86Q131.97 219.70 131.97 221.24" fill="white" fill-opacity="0.7"/>
<path d="M149.73 229.83L148.67 229.83Q146.46 229.83 145.25 228.84Q144.04 227.84 144.04 226.02L146.20 226.02Q146.20 226.93 146.85 227.44Q147.50 227.96 148.67 227.96L149.73 227.96Q150.93 227.96 151.59 227.43Q152.25 226.90 152.25 225.94Q152.25 224.24 150.69 224.02L147.04 223.50Q145.70 223.30 144.95 222.38Q144.21 221.46 144.21 219.94Q144.21 218.22 145.40 217.23Q146.58 216.25 148.67 216.25L149.73 216.25Q151.65 216.25 152.86 217.20Q154.07 218.14 154.17 219.68L151.98 219.68Q151.94 218.98 151.32 218.53Q150.71 218.07 149.73 218.07L148.67 218.07Q147.57 218.07 146.94 218.58Q146.32 219.08 146.32 219.94Q146.32 221.34 147.59 221.53LNaN 222.01Q154.36 222.49 154.36 225.94Q154.36 227.79 153.15 228.81Q151.94 229.83 149.73 229.83" fill="white" fill-opacity="0.7"/>
<path d="M178.12 229.64L175.96 229.64L175.96 220.21L172.12 220.21L172.12 218.24L175.96 218.24L175.96 215.48Q175.96 213.92 176.94 213.02Q177.93 212.12 179.66 212.12L183.52 212.12L183.52 214.09L179.66 214.09Q178.12 214.09 178.12 215.48L178.12 218.24L183.52 218.24L183.52 220.21L178.12 220.21" fill="white" fill-opacity="0.7"/>
<path d="M192.40 229.83Q190.02 229.83 188.62 228.44Q187.22 227.05 187.22 224.55L187.22 221.53Q187.22 219.01 188.61 217.63QNaN 216.25 192.40 216.25Q194.80 216.25 196.19 217.63Q197.58 219.01 197.58 221.53L197.58 224.55Q197.58 227.05 196.18 228.44Q194.78 229.83 192.40 229.83M192.40 227.91Q193.82 227.91 194.62 227.12Q195.42 226.33 195.42 224.79L195.42 221.29Q195.42 219.75 194.62 218.96Q193.82 218.17 192.40 218.17Q191.01 218.17 190.19 218.96Q189.38 219.75 189.38 221.29L189.38 224.79Q189.38 226.33 190.19 227.12Q191.01 227.91 192.40 227.91" fill="white" fill-opacity="0.7"/>
<path d="M204.45 229.64L202.29 229.64L202.29 216.44L204.45 216.44L204.45 218.96L204.50 218.96Q204.66 217.69 205.58 216.94Q206.49 216.20 208.02 216.20Q210.09 216.20 211.20 217.44Q212.32 218.67 212.32 220.95L212.32 222.08L210.16 222.08L210.16 220.95Q210.16 218.07 207.35 218.07Q205.94 218.07 205.19 218.89Q204.45 219.70 204.45 221.24" fill="white" fill-opacity="0.7"/>
<path d="M235.60 229.83Q233.22 229.83 231.82 228.44Q230.42 227.05 230.42 224.55L230.42 221.53Q230.42 219.01 231.81 217.63Q233.20 216.25 235.60 216.25QNaN 216.25 239.39 217.63Q240.78 219.01 240.78 221.53L240.78 224.55Q240.78 227.05 239.38 228.44Q237.98 229.83 235.60 229.83M235.60 227.91Q237.02 227.91 237.82 227.12Q238.62 226.33 238.62 224.79L238.62 221.29Q238.62 219.75 237.82 218.96Q237.02 218.17 235.60 218.17Q234.21 218.17 233.39 218.96Q232.58 219.75 232.58 221.29L232.58 224.79Q232.58 226.33 233.39 227.12Q234.21 227.91 235.60 227.91" fill="white" fill-opacity="0.7"/>
<path d="M247.17 233.96L245.01 233.96L245.01 216.44L247.17 216.44L247.17 218.96L247.19 218.96Q247.36 217.66 248.32 216.93Q249.28 216.20 250.77 216.20Q252.76 216.20 253.94 217.51Q255.11 218.82 255.11 221.10L255.11 224.96Q255.11 227.24 253.94 228.56Q252.76 229.88 250.77 229.88Q249.28 229.88 248.32 229.14Q247.36 228.39 247.19 227.12L247.12 227.12L247.17 230.12L247.17 233.96M250.05 228.01Q251.42 228.01 252.18 227.29Q252.95 226.57 252.95 224.96L252.95 221.12Q252.95 219.49 252.18 218.78Q251.42 218.07 250.05 218.07Q248.73 218.07 247.95 218.91Q247.17 219.75 247.17 221.24L247.17 224.84Q247.17 226.33 247.95 227.17Q248.73 228.01 250.05 228.01" fill="white" fill-opacity="0.7"/>
<path d="M269.56 229.64L265.72 229.64Q264.09 229.64 263.10 228.69Q262.12 227.74 262.12 226.16L262.12 218.41L258.33 218.41L258.33 216.44L262.12 216.44L262.12 212.72L264.28 212.72L264.28 216.44L269.68 216.44L269.68 218.41L264.28 218.41L264.28 226.16Q264.28 226.83 264.68 227.25Q265.07 227.67 265.72 227.67L269.56 227.67" fill="white" fill-opacity="0.7"/>
<path d="M284.92 229.64L273.64 229.64L273.64 227.67L278.32 227.67L278.32 218.41L274.12 218.41L274.12 216.44L280.48 216.44L280.48 227.67L284.92 227.67L284.92 229.64M279.16 214.06Q278.37 214.06 277.91 213.66Q277.46 213.25 277.46 212.55Q277.46 211.83 277.91 211.41Q278.37 210.99 279.16 210.99Q279.95 210.99 280.41 211.41Q280.86 211.83 280.86 212.55Q280.86 213.25 280.41 213.66Q279.95 214.06 279.16 214.06" fill="white" fill-opacity="0.7"/>
<path d="M289.46 229.64L287.44 229.64L287.44 216.44L289.31 216.44L289.31 218.19L289.36 218.19Q289.48 217.30 290.07 216.75Q290.66 216.20 291.57 216.20Q292.43 216.20 293.03 216.70Q293.63 217.21 293.90 218.07L293.92 218.07Q294.09 217.21 294.68 216.70Q295.26 216.20 296.18 216.20Q297.45 216.20 298.20 217.15Q298.96 218.10 298.96 219.61L298.96 229.64L296.94 229.64L296.94 219.58Q296.94 218.79 296.56 218.32Q296.18 217.86 295.50 217.86Q294.86 217.86 294.47 218.31Q294.09 218.77 294.09 219.56L294.09 229.64L292.31 229.64L292.31 219.58Q292.31 218.79 291.93 218.32Q291.54 217.86 290.90 217.86Q290.22 217.86 289.84 218.31Q289.46 218.77 289.46 219.56" fill="white" fill-opacity="0.7"/>
<path d="M306.45 229.88Q304.41 229.88 303.21 228.74Q302.01 227.60 302.01 225.75Q302.01 224.53 302.56 223.62Q303.11 222.70 304.10 222.19Q305.08 221.67 306.35 221.67L310.43 221.67L310.43 220.64Q310.43 218.07 307.62 218.07Q306.38 218.07 305.61 218.53Q304.84 218.98 304.79 219.80L302.63 219.80Q302.75 218.24 304.08 217.22Q305.42 216.20 307.62 216.20Q310.02 216.20 311.31 217.35Q312.59 218.50 312.59 220.57L312.59 229.64L310.46 229.64L310.46 227.24L310.41 227.24Q310.22 228.46 309.18 229.17Q308.15 229.88 306.45 229.88M306.98 228.06Q308.56 228.06 309.50 227.29Q310.43 226.52 310.43 225.20L310.43 223.35L306.59 223.35Q305.54 223.35 304.88 223.99Q304.22 224.62 304.22 225.68Q304.22 226.78 304.95 227.42Q305.68 228.06 306.98 228.06" fill="white" fill-opacity="0.7"/>
<path d="M328 229.64L323.92 229.64Q322.17 229.64 321.12 228.62Q320.08 227.60 320.08 225.92L320.08 214.09L315.52 214.09L315.52 212.12L322.24 212.12L322.24 225.92Q322.24 226.74 322.70 227.20Q323.15 227.67 323.92 227.67L328 227.67" fill="white" fill-opacity="0.7"/>
<path d="M351.33 229.83L350.27 229.83Q348.06 229.83 346.85 228.84Q345.64 227.84 345.64 226.02L347.80 226.02Q347.80 226.93 348.45 227.44Q349.10 227.96 350.27 227.96L351.33 227.96Q352.53 227.96 353.19 227.43Q353.85 226.90 353.85 225.94Q353.85 224.24 352.29 224.02L348.64 223.50Q347.30 223.30 346.55 222.38Q345.81 221.46 345.81 219.94Q345.81 218.22 347 217.23Q348.18 216.25 350.27 216.25L351.33 216.25Q353.25 216.25 354.46 217.20Q355.67 218.14 355.77 219.68L353.58 219.68Q353.54 218.98 352.92 218.53Q352.31 218.07 351.33 218.07L350.27 218.07Q349.17 218.07 348.54 218.58Q347.92 219.08 347.92 219.94Q347.92 221.34 349.19 221.53L352.60 222.01Q355.96 222.49 355.96 225.94Q355.96 227.79 354.75 228.81Q353.54 229.83 351.33 229.83" fill="white" fill-opacity="0.7"/>
<path d="M363.28 229.64L360.90 229.64L358.74 216.44L360.62 216.44L361.96 225.75Q362.03 226.28 362.10 226.92Q362.18 227.55 362.20 227.96Q362.25 227.55 362.31 226.92Q362.37 226.28 362.46 225.75L364.12 216.44L366.28 216.44L367.94 225.75Q368.03 226.28 368.12 226.92Q368.20 227.55 368.22 227.96Q368.27 227.55 368.34 226.92Q368.42 226.28 368.49 225.75L369.88 216.44L371.66 216.44L369.40 229.64L367.02 229.64L365.51 220.52Q365.42 219.85 365.33 219.09Q365.25 218.34 365.20 217.93Q365.18 218.34 365.08 219.09Q364.98 219.85 364.86 220.52" fill="white" fill-opacity="0.7"/>
<path d="M378.45 229.88Q376.41 229.88 375.21 228.74Q374.01 227.60 374.01 225.75Q374.01 224.53 374.56 223.62Q375.11 222.70 376.10 222.19Q377.08 221.67 378.35 221.67L382.43 221.67L382.43 220.64Q382.43 218.07 379.62 218.07Q378.38 218.07 377.61 218.53Q376.84 218.98 376.79 219.80L374.63 219.80Q374.75 218.24 376.08 217.22Q377.42 216.20 379.62 216.20Q382.02 216.20 383.31 217.35Q384.59 218.50 384.59 220.57L384.59 229.64L382.46 229.64L382.46 227.24L382.41 227.24Q382.22 228.46 381.18 229.17Q380.15 229.88 378.45 229.88M378.98 228.06Q380.56 228.06 381.50 227.29Q382.43 226.52 382.43 225.20L382.43 223.35L378.59 223.35Q377.54 223.35 376.88 223.99Q376.22 224.62 376.22 225.68Q376.22 226.78 376.95 227.42Q377.68 228.06 378.98 228.06" fill="white" fill-opacity="0.7"/>
<path d="M391.17 233.96L389.01 233.96L389.01 216.44L391.17 216.44L391.17 218.96L391.19 218.96Q391.36 217.66 392.32 216.93Q393.28 216.20 394.77 216.20Q396.76 216.20 397.94 217.51Q399.11 218.82 399.11 221.10L399.11 224.96Q399.11 227.24 397.94 228.56Q396.76 229.88 394.77 229.88Q393.28 229.88 392.32 229.14Q391.36 228.39 391.19 227.12L391.12 227.12L391.17 230.12L391.17 233.96M394.05 228.01Q395.42 228.01 396.18 227.29Q396.95 226.57 396.95 224.96L396.95 221.12Q396.95 219.49 396.18 218.78Q395.42 218.07 394.05 218.07Q392.73 218.07 391.95 218.91Q391.17 219.75 391.17 221.24L391.17 224.84Q391.17 226.33 391.95 227.17Q392.73 228.01 394.05 228.01" fill="white" fill-opacity="0.7"/>
<path d="M408.93 229.83L407.87 229.83Q405.66 229.83 404.45 228.84Q403.24 227.84 403.24 226.02L405.40 226.02Q405.40 226.93 406.05 227.44Q406.70 227.96 407.87 227.96L408.93 227.96Q410.13 227.96 410.79 227.43Q411.45 226.90 411.45 225.94Q411.45 224.24 409.89 224.02L406.24 223.50Q404.90 223.30 404.15 222.38Q403.41 221.46 403.41 219.94Q403.41 218.22 404.60 217.23Q405.78 216.25 407.87 216.25L408.93 216.25Q410.85 216.25 412.06 217.20Q413.27 218.14 413.37 219.68L411.18 219.68Q411.14 218.98 410.52 218.53Q409.91 218.07 408.93 218.07L407.87 218.07Q406.77 218.07 406.14 218.58Q405.52 219.08 405.52 219.94Q405.52 221.34 406.79 221.53L410.20 222.01Q413.56 222.49 413.56 225.94Q413.56 227.79 412.35 228.81Q411.14 229.83 408.93 229.83" fill="white" fill-opacity="0.7"/>
<path d="M422.80 229.88Q421.91 229.88 421.37 229.35Q420.83 228.82 420.83 227.98Q420.83 227.10 421.37 226.54Q421.91 225.99 422.80 225.99Q423.69 225.99 424.23 226.54Q424.77 227.10 424.77 227.98Q424.77 228.82 424.23 229.35Q423.69 229.88 422.80 229.88" fill="white" fill-opacity="0.7"/>
<path d="M114.13 136.06L70.54 136.06L70.54 127.42L89.26 127.42L89.26 74.52L70.45 88.54L70.45 77.79L86.38 65.98L98.77 65.98L98.77 127.42L114.13 127.42L114.13 136.06M167.50 136.06L129.30 136.06L129.30 127.42L143.60 127.42L143.60 74.62L129.30 74.62L129.30 65.98L167.50 65.98L167.50 74.62L153.20 74.62L153.20 127.42L167.50 127.42L167.50 136.06M194.38 136.06L185.46 136.06L185.46 65.98L197.74 65.98L218.67 125.12Q218.38 122.62 218.14 118.92Q217.90 115.23 217.76 111.24Q217.62 107.26 217.62 103.71L217.62 65.98L226.64 65.98L226.64 136.06L214.26 136.06L193.52 76.92Q193.71 79.42 193.90 83.02Q194.10 86.62 194.24 90.56Q194.38 94.49 194.38 97.95L194.38 136.06M264.37 137.02Q254.67 137.02 248.96 131.60Q243.25 126.17 243.25 116.67L243.25 85.28Q243.25 75.87 248.96 70.44Q254.67 65.02 264.37 65.02Q273.97 65.02 279.68 70.49Q285.39 75.96 285.39 85.28L275.89 85.28Q275.89 79.61 272.82 76.54Q269.74 73.47 264.37 73.47Q258.90 73.47 255.82 76.54Q252.75 79.61 252.75 85.28L252.75 116.67Q252.75 122.43 255.82 125.50Q258.90 128.57 264.37 128.57Q269.74 128.57 272.82 125.50Q275.89 122.43 275.89 116.67L285.39 116.67Q285.39 126.08 279.68 131.55Q273.97 137.02 264.37 137.02M310.45 136.06L300.94 136.06L300.94 65.98L310.45 65.98L310.45 95.55L331.95 95.55L331.95 65.98L341.46 65.98L341.46 136.06L331.95 136.06L331.95 104.19L310.45 104.19" fill="url(#paint2_linear_0_1)"/>
<g id="Group 1">
<rect id="Rectangle 1" x="26" y="168" width="12" height="184" rx="5" fill="url(#paint3_linear_0_1)" fill-opacity="0.9"/>
</g>
<g id="Group 1_2">
<rect id="Rectangle 2" x="26" y="38" width="12" height="119" rx="5" fill="url(#paint4_linear_0_1)" fill-opacity="0.9"/>
</g>
<ellipse id="Ellipse 1" cx="148.5" cy="573" rx="215.5" ry="214" fill="url(#paint5_linear_0_1)" fill-opacity="0.4"/>
<rect id="Rectangle 3" x="1229" y="48" width="300" height="300" rx="25" fill="#FFFBFB" fill-opacity="0.9"/>
<g id="placeholder-logo"><g transform="translate(1229,48) translate(0.0,8.8) scale(0.4244)"><style type="text/css">
	.st0{fill:#FFFFFF;}
	.st1{fill:#94A6C3;}
	.st2{fill:#1B314F;}
	.st3{fill:#FFD923;}
	.st4{fill:#D82122;}
</style>
<path class="st0" d="M168.2,366.5L186.9,226L24.7,113.4l148.2,50.2l35-53.7l127.8-79.3l281.7,155.2l14.6,236.8L506.5,597l-99.2,15.2
	l51.3-93.9v-90.4l-37.3-70.6l-37.9-25.1l-58.3,60.1v63.6l-45.5,42.6l-57.8,7L196.2,520l-42-13.4l-17.5-63l31.5-44.3V366.5z"/>
<path class="st1" d="M427.2,112.2c-30.9-6.4-64.7-4.7-64.7-4.7s-11.1,51.3-79.9,64.8C283.1,172.3,373.5,203.2,427.2,112.2z"/>
<path class="st1" d="M455.2,577.7c37.3-29.2,65.3-69.4,78.2-114.9c0.6-1.7,5.8-4.7,9.3-7c5.8-3.5,11.7-6.4,12.8-11.1
	c2.3-13.4,3.5-27.4,3.5-41.4c0-5.2-5.3-10.5-10.5-15.7c-4.1-3.5-8.2-7.6-8.2-10.5c-5.8-53.1-30.3-102.7-69.4-138.8l-4.1,4.1
	c37.9,35.6,62.4,84,67.7,135.3c0.6,4.7,5.2,9.3,9.9,14c4.1,3.5,8.8,8.8,8.8,11.1c0,13.4-1.2,26.8-3.5,40.2c-0.6,2.3-5.8,4.7-9.9,7
	c-5.8,2.9-11.1,5.8-12.2,10.5c-14,49.6-46.1,92.8-88.7,120.8c7.6-16.3,31.5-69.4,44.3-96.3l-2.3-86.3l-74.1-71.7l-42,5.8l-46.1,74.7
	c0,0,21.6,27.4-8.8,59.5c-29.7,31.5-53.1,38.5-53.1,38.5l-21.6-11.7c6.4-8.2,19.3-20.4,29.2-28.6c16.9-14,33.8-15.2,33.8-30.3
	C298.9,403.3,265,412,265,412l-12.3,11.7l-5.2,43.2L221.9,499l-2.9-0.6l-42-9.3c0,0,25.7-13.4,29.8-28.6c4.1-14.6-8.2-63-8.8-65.9
	c0.6,0.6,12.3,10.5,17.5,26.8c9.3-25.7,21.6-50.2,25.1-52.5c3.5-2.3,50.7-27.4,50.7-27.4l-15.7,41.4l11.7-6.4l28-68.8
	c0,0,27.4-13.4,47.8-13.4c36.7-0.6,91-45.5,66.5-126c7,2.9,128.3,63.6,149.3,182.6C594.6,442.4,542.7,528.1,455.2,577.7z"/>
<path class="st2" d="M316.4,125c13.4-15.8,8.2-39.1,8.2-39.1l-39.1,57.8C284.9,143.7,299.4,144.3,316.4,125z"/>
<path class="st2" d="M185.1,440.6l4.7-23.3c0,0-19.3,33.8-21,38.5c-1.8,5.3,1.2,14.6,8.7,14c7.6-0.6,16.9-11.7,16.9-19.8
	C194.4,439.5,185.1,440.6,185.1,440.6z"/>
<path class="st2" d="M531.6,69.6c0,0,29.2,1.2,59.5,4.7c-68.3-53.7-133-69.4-185.5-69.4c-72.3,0-121.3,29.8-124.3,31.5l22.8-36.2
	c0,0-91-8.8-123.1,87.5c-8.2-20.4-15.7-50.2-15.7-50.2S118,79,140.2,147.8C85.9,128,8.4,100.5,5.4,100c-4.1-0.6-5.3,1.2-5.3,1.2
	s-1.2,1.7,2.3,4.7C8.9,111,131.4,201.5,158.3,219c-5.8,21-5.8,30.9,0,40.8c8.2,13.4,8.7,20.4,7.6,30.3c-1.2,9.9-11.7,95.7-14,106.2
	c-2.3,10.5-26.8,47.8-25.7,58.9c1.2,11.1,16.3,58.3,29.8,63.6c9.9,3.5,34.4,11.1,50.7,11.1c5.8,0,11.1-1.2,13.4-3.5
	c9.9-8.7,12.8-10.5,19.8-10.5c0.6,0,1.2,0,1.7,0c2.9,0,6.4,0.6,10.5,0.6c9.3,0,21.6-1.8,30.3-9.9c12.8-12.8,35-30.3,42-38.5
	c8.8-11.1,13.4-26.2,11.1-41.4c-1.8-14,5.8-26.3,14.6-38.5c11.1-14.6,31.5-40.8,31.5-40.8C421.9,377.6,447,423.7,447,475
	c0,91-79.3,164.5-177.3,164.5c-15.2,0-29.7-1.7-44.3-5.2c44.9,15.7,82.8,21,113.8,21c65.9,0,100.9-23.9,100.9-23.9
	s-12.2,15.8-32.1,33.8c0.6,0,0.6,0,0.6,0c109.1-15.2,162.2-105,162.2-105s-4.1,29.2-9.3,49C706.6,500.1,682.1,363.6,681.5,359
	c1.2,1.7,15.8,19.2,23.3,28.6C728.2,147.2,531.6,69.6,531.6,69.6z M308.2,453.5c-2.3,2.9-12.2,11.7-19.2,18.1
	c-7,6.4-14.6,12.8-20.4,18.7c-2.3,2.3-7,3.5-14,3.5c-2.3,0-4.7,0-6.4,0c-1.2,0-2.3,0-3.5,0s-1.8,0-2.3,0c-1.8,0-3.5,0-5.3,0
	c8.8-11.7,34.4-38.5,43.2-44.3c10.5-7,15.8-14,9.3-26.2c-6.4-12.3-23.3-9.3-23.3-9.3s9.9-4.1,18.7-4.1c-11.1-2.9-25.1,0-31.5,6.4
	c-7,6.4-5.8,29.2-8.7,43.7c-2.9,15.2-12.8,22.8-28,36.8c-8.2,7.6-14,9.9-18.7,9.9c-9.9-1.7-21.6-4.7-29.8-7.6
	c-5.8-7.6-14.6-32.7-16.9-43.2c1.7-5.8,8.7-18.1,12.2-25.1c7-13.4,11.1-21,12.3-28c2.3-9.9,9.9-71.2,12.8-96.8
	c7.6,9.9,18.1,26.3,15.7,36.8c16.9-23.9,4.7-47.3-1.2-56.6c-5.2-9.3-12.2-28-6.4-47.8c5.8-19.8,26.8-74.7,26.8-74.7s7,12.3,16.9,9.9
	c9.9-2.3,89.8-122.5,89.8-122.5s21.6,47.2-1.2,81.7c-23.3,34.4-46.1,40.8-46.1,40.8s32.1,5.8,61.8-15.8
	c12.2,28.6,23.9,58.3,24.5,62.4c-1.8,4.1-25.1,60.1-27.4,63.6c-1.2,1.2-9.3,3.5-15.2,4.7c-9.9,2.9-15.7,4.7-18.1,6.4
	c-4.1,3.5-22.8,54.8-31.5,79.9c-10.5,2.9-21,8.8-28.6,20.4c4.1-2.9,16.9-4.7,26.3-5.8c8.2-0.6,33.2,12.8,39.7,37.9
	c0,0.6,0,0.6,0,1.2C315.8,437.7,312.9,446.5,308.2,453.5z M253.4,460.5c5.3-7.6,4.7-20.4,5.3-24.5c0.6-4.1,1.7-11.7,6.4-12.8
	c4.7-1.2,15.8,0.6,15.8,8.7c0,7.6-8.2,9.3-14,14.6C262.7,450.5,254.5,459.3,253.4,460.5z M486.1,349c5.8-29.7,6.4-55.4,4.7-76.4
	c22.7,30.3,36.7,67.1,40.8,105c0.6,4.7,5.2,9.3,9.9,14c4.1,3.5,8.8,8.2,8.8,11.1c0,13.4-1.2,26.8-3.5,40.3c-0.6,1.7-5.8,4.7-9.9,7
	c-5.8,2.9-11.1,5.8-12.2,10.5c-12.8,44.9-40.3,84.6-77,112.6C501.9,516.5,528.1,423.1,486.1,349z M449.4,578.3
	c37.9-29.2,67.1-70,79.9-116.1c0.6-1.7,5.8-4.7,9.3-7c5.8-2.9,11.7-6.4,12.8-11.1c2.3-13.4,3.5-27.4,3.5-41.4
	c0-5.2-5.3-10.5-10.5-15.7c-2.9-3.5-7.6-7.6-7.6-10.5c-4.7-42.6-21.6-82.8-47.8-116.1c-11.7-70-58.3-91.6-59.5-92.2
	c1.2,1.8,31.5,45.5,10.5,96.8c-21.6,51.9-77,43.8-81.7,44.3c-4.7,0-22.7,23.3-45.5,66.5c-2.9-1.2-15.2-4.1-29.2-1.7
	c10.5-29.2,26.3-70.6,29.2-74.1c1.2-1.2,9.9-3.5,15.8-5.2c11.1-2.9,16.3-4.7,18.1-7c1.2-1.8,7-15.2,12.8-29.2
	c5.3,0,18.7-1.2,19.8-1.8c1.2-1.2,12.3-29.7,12.3-33.2c0-2.9-22.8-59.5-31.5-81.1c4.1-4.7,8.2-10.5,12.2-16.9
	C491.9,138.5,585.3,240,585.3,363C585.3,457.5,529.9,539.8,449.4,578.3z"/>
<path class="st2" d="M294.2,263.3c11.1-12.8,5.3-36.7-15.2-40.8c5.3-12.2,12.8-36.7,12.8-36.7s-59.5,93.3-64.7,95.1
	c-5.3,1.8-10.5-18.7-10.5-18.7c-11.1,42.6,18.7,48.4,22.2,35C255.1,293,283.1,275.5,294.2,263.3z"/>
<path class="st3" d="M243.4,286l30.3-51.9c0,0,17.5,8.8,8.7,22.8C271.4,273.2,243.4,286,243.4,286z"/>
<path class="st4" d="M618.5,526.4c-8.8,11.7-18.7,23.9-30.3,35.6c75.2-144.7,3.5-277.1,0.6-282.3c5.3,5.3,10.5,11.1,15.2,16.3
	C661.7,360.1,668.7,456.4,618.5,526.4z"/>
<path class="st4" d="M688.5,340.3c-26.3-70.6-63.6-130.7-145.8-184.9c-79.3-52.5-164.5-48.4-169.2-47.8c-0.6,0-1.2,0-1.2,0
	c2.9-1.2,5.8-1.8,8.7-2.3c18.1-5.8,41.4-10.5,64.8-13.4C507.7,83,570.1,104,612.7,149c0.6,0.6,0.6,0.6,1.2,1.2
	C662.3,201.5,687.4,265.6,688.5,340.3z"/>
<path class="st4" d="M524,51.5c-86.9-16.3-142.9-8.2-183.2,7c-1.2-4.7-5.3-14-8.8-21.6C319.9,51.5,307,69,298.9,80.1
	c-22.2,15.2-31.5,29.8-31.5,29.8c12.8-43.8,50.2-76.4,95.7-84.6c12.8-2.3,26.8-3.5,42-3.5C445.3,22.4,485.5,32.3,524,51.5z"/>
<path class="st4" d="M202.6,163.5c-68.2-2.3-45.5-81.7-44.3-86.3C158.3,77.8,162.9,139.6,202.6,163.5z"/>
<path class="st4" d="M269.7,20.6c-52.5,31.5-42,106.7-42,106.7C177.5,51,265.6,22.4,269.7,20.6z"/>
<path class="st0" d="M183.4,184.5c3.5,2.9,7,8.2,2.9,15.8c-2.3,4.1-5.8,3.5-11.1,1.2c-7-3.5-49-28-86.9-53.1
	c43.2,15.2,86.9,31.5,93.9,35C182.2,183.4,182.8,184,183.4,184.5z"/></g></g>
</g>
<defs>
<linearGradient id="paint0_linear_0_1" x1="0" y1="198" x2="1584" y2="198" gradientUnits="userSpaceOnUse">
<stop stop-color="#3D052C"/>
<stop offset="1"/>
</linearGradient>
<linearGradient id="paint1_linear_0_1" x1="323" y1="-224" x2="323" y2="352" gradientUnits="userSpaceOnUse">
<stop stop-color="#28F6F2" stop-opacity="0.4"/>
<stop offset="1" stop-color="#17908E" stop-opacity="0.7"/>
</linearGradient>
<linearGradient id="paint2_linear_0_1" x1="148.5" y1="38" x2="148.5" y2="140" gradientUnits="userSpaceOnUse">
<stop stop-color="white"/>
<stop offset="1" stop-color="#999999"/>
</linearGradient>
<linearGradient id="paint3_linear_0_1" x1="38" y1="260" x2="26" y2="260" gradientUnits="userSpaceOnUse">
<stop stop-color="#D9D9D9"/>
<stop offset="1" stop-color="#737373"/>
</linearGradient>
<linearGradient id="paint4_linear_0_1" x1="38" y1="97.5" x2="26" y2="97.5" gradientUnits="userSpaceOnUse">
<stop stop-color="#D9D9D9"/>
<stop offset="1" stop-color="#737373"/>
</linearGradient>
<linearGradient id="paint5_linear_0_1" x1="27.5" y1="434.5" x2="148.5" y2="787" gradientUnits="userSpaceOnUse">
<stop stop-color="#2E21BC"/>
<stop offset="1" stop-color="#150F56"/>
</linearGradient>
<clipPath id="clip0_0_1">
<rect width="1584" height="396" fill="white"/>
</clipPath>
</defs>
</svg>
